<svg width="33" height="17" viewBox="0 0 33 17" fill="none" xmlns="http://www.w3.org/2000/svg">
<path d="M16.5 0C7.38817 0 0 3.90469 0 8.71629C0 12.5679 4.72902 15.8312 11.2848 16.9848C11.3768 16.9951 11.4706 17.0002 11.5647 17C12.1761 17 12.4118 16.7685 12.4118 16.5674C12.4118 16.3587 12.3971 15.8123 12.3897 15.0837C11.8439 15.1496 11.2856 15.184 10.725 15.1862C7.55022 15.1862 6.82835 13.915 6.82835 13.915C6.07701 12.9094 4.9942 12.64 4.9942 12.64C3.55781 12.1201 4.98683 12.1049 5.09732 12.1049H5.10469C6.76205 12.1808 7.63125 13.008 7.63125 13.008C8.45625 13.7518 9.56116 13.9605 10.5482 13.9605C11.2009 13.9538 11.8434 13.8762 12.4339 13.7328C12.5813 13.1712 13.0085 12.7879 13.4799 12.5679C9.81897 12.3478 5.96652 11.6002 5.96652 8.26093C5.96652 7.30848 6.60737 6.53058 7.66071 5.92344C7.49129 5.70335 6.92411 4.8154 7.82277 3.61629C7.94331 3.60143 8.0672 3.59505 8.19107 3.59732C8.78772 3.59732 10.1357 3.71495 12.3603 4.51183C15.0633 4.12224 17.922 4.12224 20.625 4.51183C22.8496 3.71495 24.1975 3.59732 24.7942 3.59732C24.9181 3.59505 25.042 3.60143 25.1625 3.61629C26.0612 4.8154 25.494 5.70335 25.3246 5.92344C26.3779 6.53437 27.0187 7.31227 27.0187 8.26093C27.0187 11.6078 23.1589 12.344 19.4833 12.5603C20.0725 12.8297 20.6029 13.3609 20.6029 14.173C20.6029 15.3379 20.5808 16.279 20.5808 16.5636C20.5808 16.7685 20.8092 17 21.4205 17C21.5195 17.0002 21.6183 16.9951 21.7152 16.9848C28.2783 15.8312 33 12.5641 33 8.71629C33 3.90469 25.6118 0 16.5 0Z" fill="black"/>
</svg>
