<svg width="36" height="29" viewBox="0 0 36 29" fill="none" xmlns="http://www.w3.org/2000/svg">
<path d="M0 0H0.435374L32 14.5L0.435374 29H0V14.5V0Z" fill="#C4C4C4"/>
<path d="M5.77441 18H4.45605L1.88965 13.79V18H0.571289V11.6016H1.88965L4.46045 15.8203V11.6016H5.77441V18ZM10.7754 15.2271H8.24414V16.9409H11.2148V18H6.92578V11.6016H11.2061V12.6694H8.24414V14.1943H10.7754V15.2271ZM14.2778 13.8076L15.4775 11.6016H16.9937L15.1304 14.7744L17.042 18H15.5083L14.2778 15.7588L13.0474 18H11.5137L13.4253 14.7744L11.562 11.6016H13.0781L14.2778 13.8076ZM22.5264 12.6694H20.5664V18H19.248V12.6694H17.3145V11.6016H22.5264V12.6694Z" fill="black"/>
</svg>
