<svg width="44" height="29" viewBox="0 0 44 29" fill="none" xmlns="http://www.w3.org/2000/svg">
<path d="M31.5328 0H32V14.5V29H31.5328L0 14.5L31.5328 0Z" fill="#C4C4C4"/>
<path d="M9.88965 16.7456V19H8.57129V12.6016H11.0674C11.5479 12.6016 11.9697 12.6895 12.333 12.8652C12.6992 13.041 12.9805 13.2915 13.1768 13.6167C13.373 13.939 13.4712 14.3066 13.4712 14.7197C13.4712 15.3467 13.2559 15.8418 12.8252 16.2051C12.3975 16.5654 11.8042 16.7456 11.0454 16.7456H9.88965ZM9.88965 15.6777H11.0674C11.416 15.6777 11.6812 15.5957 11.8628 15.4316C12.0474 15.2676 12.1396 15.0332 12.1396 14.7285C12.1396 14.415 12.0474 14.1616 11.8628 13.9683C11.6782 13.7749 11.4233 13.6753 11.0981 13.6694H9.88965V15.6777ZM16.7495 16.6577H15.6992V19H14.3809V12.6016H16.7583C17.5142 12.6016 18.0972 12.77 18.5073 13.1069C18.9175 13.4438 19.1226 13.9199 19.1226 14.5352C19.1226 14.9717 19.0273 15.3364 18.8369 15.6294C18.6494 15.9194 18.3638 16.1509 17.98 16.3237L19.3643 18.9385V19H17.9492L16.7495 16.6577ZM15.6992 15.5898H16.7627C17.0938 15.5898 17.3501 15.5063 17.5317 15.3394C17.7134 15.1694 17.8042 14.9365 17.8042 14.6406C17.8042 14.3389 17.7178 14.1016 17.5449 13.9287C17.375 13.7559 17.1128 13.6694 16.7583 13.6694H15.6992V15.5898ZM23.9785 16.2271H21.4473V17.9409H24.418V19H20.1289V12.6016H24.4092V13.6694H21.4473V15.1943H23.9785V16.2271ZM27.5557 17.4136L29.0059 12.6016H30.4736L28.2456 19H26.8701L24.6509 12.6016H26.1143L27.5557 17.4136Z" fill="black"/>
</svg>
