<svg width="40" height="18" viewBox="0 0 40 18" fill="none" xmlns="http://www.w3.org/2000/svg">
<path d="M40 2.13281C38.4995 2.49954 36.912 2.74115 35.2875 2.85C36.9947 2.28768 38.2786 1.39433 38.8983 0.337507C37.2842 0.868407 35.5213 1.24091 33.685 1.43907C32.9117 0.983222 31.9818 0.620586 30.9516 0.3732C29.9214 0.125813 28.8126 -0.00115656 27.6925 7.93799e-06C23.1575 7.93799e-06 19.4875 2.03438 19.4875 4.54218C19.4843 4.89101 19.5553 5.2388 19.6992 5.57812C16.4472 5.49236 13.2629 5.02573 10.35 4.20808C7.43703 3.39043 4.85957 2.23976 2.7825 0.829693C2.05381 1.52068 1.66844 2.30908 1.66667 3.1125C1.66667 4.68749 3.1275 6.07968 5.33333 6.8953C4.02644 6.87785 2.74633 6.68328 1.60167 6.32811V6.38436C1.60167 8.58748 4.435 10.4203 8.185 10.8375C7.47982 10.9432 6.75314 10.9968 6.02333 10.9968C5.50548 10.9974 4.98881 10.9691 4.48083 10.9125C5.52333 12.7172 8.5575 14.0297 12.1517 14.0672C9.23115 15.3332 5.64552 16.0175 1.95833 16.0125C1.30385 16.0119 0.649971 15.99 0 15.9468C3.75098 17.2941 8.11121 18.0068 12.5617 18C27.675 18 35.9317 11.0765 35.9317 5.07187C35.9317 4.87499 35.9225 4.67812 35.9058 4.48593C37.5084 3.84471 38.8948 3.04786 40 2.13281Z" fill="#A6C7D5"/>
</svg>
