<svg width="68" height="44" viewBox="0 0 68 44" fill="none" xmlns="http://www.w3.org/2000/svg">
<ellipse cx="34" cy="22" rx="34" ry="22" fill="#C4C4C4"/>
<path d="M23.7051 25H21.9473V21.3438H18.5195V25H16.7617V16.4688H18.5195V19.9258H21.9473V16.4688H23.7051V25ZM32.2539 20.9277C32.2539 21.7676 32.1055 22.5039 31.8086 23.1367C31.5117 23.7695 31.0859 24.2578 30.5312 24.6016C29.9805 24.9453 29.3477 25.1172 28.6328 25.1172C27.9258 25.1172 27.2949 24.9473 26.7402 24.6074C26.1855 24.2676 25.7559 23.7832 25.4512 23.1543C25.1465 22.5215 24.9922 21.7949 24.9883 20.9746V20.5527C24.9883 19.7129 25.1387 18.9746 25.4395 18.3379C25.7441 17.6973 26.1719 17.207 26.7227 16.8672C27.2773 16.5234 27.9102 16.3516 28.6211 16.3516C29.332 16.3516 29.9629 16.5234 30.5137 16.8672C31.0684 17.207 31.4961 17.6973 31.7969 18.3379C32.1016 18.9746 32.2539 19.7109 32.2539 20.5469V20.9277ZM30.4727 20.541C30.4727 19.6465 30.3125 18.9668 29.9922 18.502C29.6719 18.0371 29.2148 17.8047 28.6211 17.8047C28.0312 17.8047 27.5762 18.0352 27.2559 18.4961C26.9355 18.9531 26.7734 19.625 26.7695 20.5117V20.9277C26.7695 21.7988 26.9297 22.4746 27.25 22.9551C27.5703 23.4355 28.0312 23.6758 28.6328 23.6758C29.2227 23.6758 29.6758 23.4453 29.9922 22.9844C30.3086 22.5195 30.4688 21.8438 30.4727 20.957V20.541ZM35.8281 16.4688L38.0195 22.6562L40.1992 16.4688H42.5078V25H40.7441V22.668L40.9199 18.6426L38.6172 25H37.4102L35.1133 18.6484L35.2891 22.668V25H33.5312V16.4688H35.8281ZM49.1758 21.3027H45.8008V23.5879H49.7617V25H44.043V16.4688H49.75V17.8926H45.8008V19.9258H49.1758V21.3027Z" fill="black"/>
</svg>
